<mxfile host="app.diagrams.net" agent="Mozilla/5.0 (Windows NT 10.0; Win64; x64) AppleWebKit/537.36 (KHTML, like Gecko) Chrome/135.0.0.0 Safari/537.36" version="26.2.14">
  <diagram name="Page-1" id="A0pkmFhM8jvRp8QMeJk4">
    <mxGraphModel dx="1106" dy="1671" grid="1" gridSize="10" guides="1" tooltips="1" connect="1" arrows="1" fold="1" page="1" pageScale="1" pageWidth="850" pageHeight="1100" math="0" shadow="0">
      <root>
        <mxCell id="0" />
        <mxCell id="1" parent="0" />
        <mxCell id="Ob8cVxhxe2ABof4mAASp-22" value="" style="rounded=0;whiteSpace=wrap;html=1;dashed=1;dashPattern=8 8;strokeWidth=4;strokeColor=light-dark(#d97c30, #ededed);" vertex="1" parent="1">
          <mxGeometry x="395.5" y="19" width="160" height="291" as="geometry" />
        </mxCell>
        <mxCell id="Ob8cVxhxe2ABof4mAASp-12" value="" style="rounded=0;whiteSpace=wrap;html=1;dashed=1;dashPattern=8 8;strokeWidth=4;strokeColor=light-dark(#d4e8d4, #ededed);" vertex="1" parent="1">
          <mxGeometry x="169.5" y="20" width="160" height="400" as="geometry" />
        </mxCell>
        <mxCell id="Ob8cVxhxe2ABof4mAASp-2" value="输入数据&lt;div&gt;包裹相位数据&lt;/div&gt;" style="rounded=1;whiteSpace=wrap;html=1;fillColor=#ffe6cc;strokeColor=light-dark(#fcbc1d, #996500);fillStyle=auto;" vertex="1" parent="1">
          <mxGeometry x="20" y="40" width="119" height="60" as="geometry" />
        </mxCell>
        <mxCell id="Ob8cVxhxe2ABof4mAASp-14" value="" style="edgeStyle=orthogonalEdgeStyle;rounded=0;orthogonalLoop=1;jettySize=auto;html=1;" edge="1" parent="1" source="Ob8cVxhxe2ABof4mAASp-3" target="Ob8cVxhxe2ABof4mAASp-7">
          <mxGeometry relative="1" as="geometry" />
        </mxCell>
        <mxCell id="Ob8cVxhxe2ABof4mAASp-3" value="残差点检测" style="rounded=1;whiteSpace=wrap;html=1;fillColor=#d5e8d4;strokeColor=#82b366;" vertex="1" parent="1">
          <mxGeometry x="190" y="40" width="119" height="60" as="geometry" />
        </mxCell>
        <mxCell id="Ob8cVxhxe2ABof4mAASp-4" value="枝切线放置" style="rounded=1;whiteSpace=wrap;html=1;fillColor=#d5e8d4;strokeColor=#82b366;" vertex="1" parent="1">
          <mxGeometry x="190" y="140" width="119" height="60" as="geometry" />
        </mxCell>
        <mxCell id="Ob8cVxhxe2ABof4mAASp-5" value="洪水填充路径规划" style="rounded=1;whiteSpace=wrap;html=1;fillColor=#d5e8d4;strokeColor=#82b366;" vertex="1" parent="1">
          <mxGeometry x="190" y="230" width="119" height="60" as="geometry" />
        </mxCell>
        <mxCell id="Ob8cVxhxe2ABof4mAASp-23" style="edgeStyle=orthogonalEdgeStyle;rounded=0;orthogonalLoop=1;jettySize=auto;html=1;exitX=1;exitY=0.5;exitDx=0;exitDy=0;entryX=0;entryY=0.5;entryDx=0;entryDy=0;" edge="1" parent="1" source="Ob8cVxhxe2ABof4mAASp-6" target="Ob8cVxhxe2ABof4mAASp-7">
          <mxGeometry relative="1" as="geometry" />
        </mxCell>
        <mxCell id="Ob8cVxhxe2ABof4mAASp-26" value="" style="edgeStyle=orthogonalEdgeStyle;rounded=0;orthogonalLoop=1;jettySize=auto;html=1;" edge="1" parent="1" source="Ob8cVxhxe2ABof4mAASp-6" target="Ob8cVxhxe2ABof4mAASp-25">
          <mxGeometry relative="1" as="geometry" />
        </mxCell>
        <mxCell id="Ob8cVxhxe2ABof4mAASp-6" value="连通域分析" style="rounded=1;whiteSpace=wrap;html=1;fillColor=#d5e8d4;strokeColor=#82b366;" vertex="1" parent="1">
          <mxGeometry x="190" y="330" width="119" height="60" as="geometry" />
        </mxCell>
        <mxCell id="Ob8cVxhxe2ABof4mAASp-19" value="" style="edgeStyle=orthogonalEdgeStyle;rounded=0;orthogonalLoop=1;jettySize=auto;html=1;" edge="1" parent="1" source="Ob8cVxhxe2ABof4mAASp-7" target="Ob8cVxhxe2ABof4mAASp-18">
          <mxGeometry relative="1" as="geometry" />
        </mxCell>
        <mxCell id="Ob8cVxhxe2ABof4mAASp-7" value="状态空间建模" style="rounded=1;whiteSpace=wrap;html=1;fillColor=#f8cecc;strokeColor=#b85450;" vertex="1" parent="1">
          <mxGeometry x="416" y="40" width="119" height="60" as="geometry" />
        </mxCell>
        <mxCell id="Ob8cVxhxe2ABof4mAASp-8" value="" style="endArrow=classic;html=1;rounded=0;exitX=1;exitY=0.5;exitDx=0;exitDy=0;entryX=0;entryY=0.5;entryDx=0;entryDy=0;" edge="1" parent="1" source="Ob8cVxhxe2ABof4mAASp-2" target="Ob8cVxhxe2ABof4mAASp-3">
          <mxGeometry width="50" height="50" relative="1" as="geometry">
            <mxPoint x="400" y="220" as="sourcePoint" />
            <mxPoint x="450" y="170" as="targetPoint" />
            <Array as="points">
              <mxPoint x="160" y="70" />
              <mxPoint x="170" y="70" />
            </Array>
          </mxGeometry>
        </mxCell>
        <mxCell id="Ob8cVxhxe2ABof4mAASp-9" value="" style="endArrow=classic;html=1;rounded=0;exitX=0.5;exitY=1;exitDx=0;exitDy=0;entryX=0.5;entryY=0;entryDx=0;entryDy=0;" edge="1" parent="1" source="Ob8cVxhxe2ABof4mAASp-3" target="Ob8cVxhxe2ABof4mAASp-4">
          <mxGeometry width="50" height="50" relative="1" as="geometry">
            <mxPoint x="149" y="80" as="sourcePoint" />
            <mxPoint x="200" y="80" as="targetPoint" />
            <Array as="points" />
          </mxGeometry>
        </mxCell>
        <mxCell id="Ob8cVxhxe2ABof4mAASp-10" value="" style="endArrow=classic;html=1;rounded=0;exitX=0.5;exitY=1;exitDx=0;exitDy=0;entryX=0.5;entryY=0;entryDx=0;entryDy=0;" edge="1" parent="1" source="Ob8cVxhxe2ABof4mAASp-4" target="Ob8cVxhxe2ABof4mAASp-5">
          <mxGeometry width="50" height="50" relative="1" as="geometry">
            <mxPoint x="260" y="110" as="sourcePoint" />
            <mxPoint x="260" y="150" as="targetPoint" />
            <Array as="points" />
          </mxGeometry>
        </mxCell>
        <mxCell id="Ob8cVxhxe2ABof4mAASp-11" value="" style="endArrow=classic;html=1;rounded=0;exitX=0.5;exitY=1;exitDx=0;exitDy=0;entryX=0.5;entryY=0;entryDx=0;entryDy=0;" edge="1" parent="1" source="Ob8cVxhxe2ABof4mAASp-5" target="Ob8cVxhxe2ABof4mAASp-6">
          <mxGeometry width="50" height="50" relative="1" as="geometry">
            <mxPoint x="260" y="294" as="sourcePoint" />
            <mxPoint x="260" y="324" as="targetPoint" />
            <Array as="points" />
          </mxGeometry>
        </mxCell>
        <mxCell id="Ob8cVxhxe2ABof4mAASp-21" value="" style="edgeStyle=orthogonalEdgeStyle;rounded=0;orthogonalLoop=1;jettySize=auto;html=1;" edge="1" parent="1" source="Ob8cVxhxe2ABof4mAASp-18" target="Ob8cVxhxe2ABof4mAASp-20">
          <mxGeometry relative="1" as="geometry" />
        </mxCell>
        <mxCell id="Ob8cVxhxe2ABof4mAASp-18" value="状态预测" style="whiteSpace=wrap;html=1;rounded=1;fillColor=#f8cecc;strokeColor=#b85450;" vertex="1" parent="1">
          <mxGeometry x="416" y="130" width="120" height="60" as="geometry" />
        </mxCell>
        <mxCell id="Ob8cVxhxe2ABof4mAASp-29" style="edgeStyle=orthogonalEdgeStyle;rounded=0;orthogonalLoop=1;jettySize=auto;html=1;exitX=0.5;exitY=1;exitDx=0;exitDy=0;entryX=0.5;entryY=0;entryDx=0;entryDy=0;" edge="1" parent="1" source="Ob8cVxhxe2ABof4mAASp-20" target="Ob8cVxhxe2ABof4mAASp-25">
          <mxGeometry relative="1" as="geometry" />
        </mxCell>
        <mxCell id="Ob8cVxhxe2ABof4mAASp-20" value="测量更新" style="whiteSpace=wrap;html=1;rounded=1;fillColor=#f8cecc;strokeColor=#b85450;" vertex="1" parent="1">
          <mxGeometry x="416" y="229" width="120" height="60" as="geometry" />
        </mxCell>
        <mxCell id="Ob8cVxhxe2ABof4mAASp-28" value="" style="edgeStyle=orthogonalEdgeStyle;rounded=0;orthogonalLoop=1;jettySize=auto;html=1;" edge="1" parent="1" source="Ob8cVxhxe2ABof4mAASp-25" target="Ob8cVxhxe2ABof4mAASp-27">
          <mxGeometry relative="1" as="geometry" />
        </mxCell>
        <mxCell id="Ob8cVxhxe2ABof4mAASp-25" value="融合策略&lt;div&gt;连通域一致性&lt;/div&gt;" style="whiteSpace=wrap;html=1;fillColor=#d5e8d4;strokeColor=#82b366;rounded=1;" vertex="1" parent="1">
          <mxGeometry x="299" y="460" width="121" height="60" as="geometry" />
        </mxCell>
        <mxCell id="Ob8cVxhxe2ABof4mAASp-27" value="输出展开相位" style="whiteSpace=wrap;html=1;fillColor=#d5e8d4;strokeColor=#82b366;rounded=1;" vertex="1" parent="1">
          <mxGeometry x="470" y="460" width="119.5" height="60" as="geometry" />
        </mxCell>
        <mxCell id="Ob8cVxhxe2ABof4mAASp-30" value="&lt;font style=&quot;color: rgb(103, 208, 120); font-size: 18px;&quot;&gt;枝切法模块&lt;/font&gt;" style="text;html=1;align=center;verticalAlign=middle;resizable=0;points=[];autosize=1;strokeColor=none;fillColor=none;" vertex="1" parent="1">
          <mxGeometry x="194.5" y="-18" width="110" height="40" as="geometry" />
        </mxCell>
        <mxCell id="Ob8cVxhxe2ABof4mAASp-31" value="&lt;font style=&quot;color: light-dark(rgb(248, 206, 204), rgb(237, 237, 237)); font-size: 18px;&quot;&gt;扩展卡尔曼滤波模块&lt;/font&gt;" style="text;html=1;align=center;verticalAlign=middle;resizable=0;points=[];autosize=1;strokeColor=none;fillColor=none;fontSize=13;" vertex="1" parent="1">
          <mxGeometry x="385" y="-18" width="190" height="40" as="geometry" />
        </mxCell>
      </root>
    </mxGraphModel>
  </diagram>
</mxfile>
